<?xml version="1.0" standalone="no"?><!DOCTYPE svg PUBLIC "-//W3C//DTD SVG 1.1//EN" "http://www.w3.org/Graphics/SVG/1.1/DTD/svg11.dtd"><svg width="100%" height="100%" viewBox="0 0 392 373" version="1.1" xmlns="http://www.w3.org/2000/svg" xmlns:xlink="http://www.w3.org/1999/xlink" xml:space="preserve" style="fill-rule:evenodd;clip-rule:evenodd;stroke-linejoin:round;stroke-miterlimit:1.41421;"><g><g><path d="M206.671,0.186c10.002,10.816 17.652,148.03 -6.845,165.915c-7.99,5.834 -31.01,-0.065 -40.588,-0.307c-13.267,-0.745 -24.241,-6.899 -33.164,-17.891c-11.951,-14.781 -22.104,-25.831 -29.841,-31.863c13.75,3.303 25.118,4.59 33.703,3.523c13.167,-0.306 25.059,1.787 34.729,8.064c-22.404,-21.457 -34.115,-42.565 -38.047,-63.419c-3.085,-17.029 -5.521,-29.517 -7.764,-40.657c4.623,8.079 10.743,15.196 18.856,21.031c11.643,6.29 21.358,12.832 29.121,19.626c9.692,7.676 16.295,19.483 20.361,34.684c-2.653,-18.133 -2.343,-36.233 0,-54.31c2.306,-17.777 8.754,-32.608 19.479,-44.396Z" style="fill:#fff;"/><path d="M206.794,242.921c0.058,0.056 0.116,0.111 0.175,0.166l0,-0.333c5.809,-5.625 9.208,-13.091 10.472,-22.19c7.081,0.184 12.426,-3.784 15.896,-12.239c-9.364,-4.274 -15.398,-11.287 -16.161,-22.637l36.421,0l0,-19.587l-17.427,0c0.462,-11.16 3.941,-19.913 12.757,-24.407c6.126,-1.858 11.798,-1.098 16.715,4.004c4.211,6.551 4.605,13.145 0.642,19.786c10.743,-1.896 20.457,-6.152 26.655,-18.462c4.667,-11.63 3.78,-23.279 -4.329,-34.953c-11.089,-12.834 -23.66,-16.27 -38.117,-7.735c-10.074,6.526 -16.954,15.644 -20.677,27.322c-3.988,11.3 -5.713,22.803 -5.894,34.445l-10.16,0c-0.169,-12.1 1.081,-23.952 4.003,-35.51c3.085,-10.53 6.593,-20.84 10.412,-30.988c4.046,-10.18 7.466,-19.829 8.499,-27.447c0.704,-9.63 0.037,-18.683 -2.715,-26.857c-2.866,-8.87 -6.936,-17.603 -12.157,-26.205c-4.453,-6.415 -9.358,-12.611 -14.835,-18.531l0,-0.377c-0.059,0.063 -0.117,0.126 -0.175,0.188c-0.058,-0.062 -0.117,-0.125 -0.175,-0.188l0,0.377c-5.477,5.92 -6.624,153.438 -6.793,165.538l-39.836,0l0,19.587l36.422,0c-0.763,11.35 -6.798,18.363 -16.161,22.637c3.469,8.455 8.815,12.423 15.896,12.239c1.263,9.099 4.663,16.565 10.472,22.19l0,0.333c0.059,-0.055 0.117,-0.11 0.175,-0.166Z" style="fill:#fff;"/></g><g><text x="8.819px" y="343.928px" style="font-family:'Porter-BoldDEMO';font-size:39.278px;fill:#fff;">chanvre quebe<tspan x="354.586px " y="343.928px ">c</tspan></text><path d="M10.783,362.307l370.434,0" style="fill:#ebebeb;stroke-width:11.53px;stroke:#fff;"/><path d="M10.783,297.454l370.434,0" style="fill:#ebebeb;stroke-width:11.53px;stroke:#fff;"/></g></g></svg>